<svg xmlns="http://www.w3.org/2000/svg" width="312" height="312" viewBox="0 0 312 312">
  <path fill="#FFF" fill-rule="evenodd" d="M130.479,136.073 C130.479,130.223 126.127,126.73 118.835,126.73 L107.037,126.73 L107.037,145.416 L118.835,145.416 C122.337,145.416 130.479,144.506 130.479,136.073 Z M130.479,174.153 C130.479,168.303 126.127,164.81 118.835,164.81 L107.037,164.81 L107.037,183.497 L118.835,183.497 C122.337,183.497 130.479,182.585 130.479,174.153 Z M156.181,175.565 C156.181,192.443 143.294,204.228 124.839,204.228 L85.36,204.228 L85.36,107.741 L122.161,107.741 C140.831,107.741 153.375,118.696 153.375,135.001 C153.375,142.653 149.787,149.74 144.146,154.033 C150.678,157.88 156.181,165.23 156.181,175.565 Z M280.264,156.095 C280.264,87.416 224.585,31.737 155.906,31.737 C87.226,31.737 31.547,87.416 31.547,156.095 C31.547,224.775 87.226,280.453 155.906,280.453 C224.585,280.453 280.264,224.775 280.264,156.095 Z M297.638,156.095 C297.638,234.372 234.182,297.826 155.906,297.826 C77.629,297.826 14.173,234.372 14.173,156.095 C14.173,77.817 77.629,14.363 155.906,14.363 C234.182,14.363 297.638,77.817 297.638,156.095 Z M163.55,107.741 L231.243,107.741 L231.243,130.143 L208.669,130.143 L208.669,204.228 L185.228,204.228 L185.228,130.143 L163.55,130.143 L163.55,107.741 L163.55,107.741 Z"/>
</svg>
